<svg xmlns="http://www.w3.org/2000/svg" style="display: none;">
  <symbol id="icon-pousada" viewBox="0 0 24 24">
    <path fill="#0066cc" d="M12 3L2 12h3v8h6v-6h2v6h6v-8h3L12 3zm0 2.7L17 10v9h-2v-6H9v6H7v-9l5-4.3z"/>
  </symbol>
  <symbol id="icon-alimentacao" viewBox="0 0 24 24">
    <path fill="#0066cc" d="M11 9H9V2H7v7H5V2H3v7c0 2.12 1.66 3.84 3.75 3.97V22h2.5v-9.03C11.34 12.84 13 11.12 13 9V2h-2v7zm5-3v8h2.5v8H21V2c-2.76 0-5 2.24-5 4z"/>
  </symbol>
  <symbol id="icon-quarto" viewBox="0 0 24 24">
    <path fill="#0066cc" d="M20 10V7c0-1.1-.9-2-2-2H6c-1.1 0-2 .9-2 2v3c-1.1 0-2 .9-2 2v5h1.33L4 19h1l.67-2h12.67l.66 2h1l.67-2H22v-5c0-1.1-.9-2-2-2zm-9 0H6V7h5v3zm7 0h-5V7h5v3z"/>
  </symbol>
  <symbol id="icon-recepcao" viewBox="0 0 24 24">
    <path fill="#0066cc" d="M12 2C6.48 2 2 6.48 2 12s4.48 10 10 10 10-4.48 10-10S17.52 2 12 2zm0 3c1.66 0 3 1.34 3 3s-1.34 3-3 3-3-1.34-3-3 1.34-3 3-3zm0 14.2c-2.5 0-4.71-1.28-6-3.22.03-1.99 4-3.08 6-3.08 1.99 0 5.97 1.09 6 3.08-1.29 1.94-3.5 3.22-6 3.22z"/>
  </symbol>
</svg>